G71*
G90*
G04 Quadcept GERBER*
%MOMM*%
%FSLAX44Y44*%
%ADD10C,0.2*%
%ADD11R,0.85X0.75*%
%ADD12R,0.85X0.75*%
G54D10*
G01X-280000Y-390000D02*
G01X-279659Y-392588D01*
G01X-279659Y-392588D02*
G01X-278660Y-395000D01*
G01X-278660Y-395000D02*
G01X-277071Y-397071D01*
G01X-277071Y-397071D02*
G01X-275000Y-398660D01*
G01X-275000Y-398660D02*
G01X-272588Y-399659D01*
G01X-272588Y-399659D02*
G01X-270000Y-400000D01*
G01X-270000Y-400000D02*
G01X-270000Y-400000D01*
G01X-270000Y-400000D02*
G01X595000Y-400000D01*
G01X595000Y-400000D02*
G01X597588Y-399659D01*
G01X597588Y-399659D02*
G01X600000Y-398660D01*
G01X600000Y-398660D02*
G01X602071Y-397071D01*
G01X602071Y-397071D02*
G01X603660Y-395000D01*
G01X603660Y-395000D02*
G01X604659Y-392588D01*
G01X604659Y-392588D02*
G01X605000Y-390000D01*
G01X605000Y-390000D02*
G01X605000Y-390000D01*
G01X605000Y-390000D02*
G01X605000Y390000D01*
G01X605000Y390000D02*
G01X604659Y392588D01*
G01X604659Y392588D02*
G01X603660Y395000D01*
G01X603660Y395000D02*
G01X602071Y397071D01*
G01X602071Y397071D02*
G01X600000Y398660D01*
G01X600000Y398660D02*
G01X597588Y399659D01*
G01X597588Y399659D02*
G01X595000Y400000D01*
G01X595000Y400000D02*
G01X595000Y400000D01*
G01X595000Y400000D02*
G01X-270000Y400000D01*
G01X-270000Y400000D02*
G01X-272588Y399659D01*
G01X-272588Y399659D02*
G01X-275000Y398660D01*
G01X-275000Y398660D02*
G01X-277071Y397071D01*
G01X-277071Y397071D02*
G01X-278660Y395000D01*
G01X-278660Y395000D02*
G01X-279659Y392588D01*
G01X-279659Y392588D02*
G01X-280000Y390000D01*
G01X-280000Y390000D02*
G01X-280000Y390000D01*
G01X-280000Y390000D02*
G01X-280000Y-390000D01*
G01X585000Y-120600D02*
G01X605000Y-120600D01*
G01X200000Y-399850D02*
G01X200000Y-379850D01*
G01X200000Y-379850D02*
G01X230000Y-379850D01*
G01X230000Y-379850D02*
G01X230000Y-399850D01*
G01X605000Y-80000D02*
G01X585000Y-80000D01*
G01X585000Y89700D02*
G01X605000Y89700D01*
G01X585000Y49700D02*
G01X585000Y89700D01*
G01X605000Y49700D02*
G01X585000Y49700D01*
G01X230000Y400000D02*
G01X230000Y385200D01*
G01X230000Y385200D02*
G01X200000Y385200D01*
G01X200000Y385200D02*
G01X200000Y400000D01*
G01X585000Y-120300D02*
G01X585000Y-80300D01*
G54D11*
X584450Y385000D03*
X584450Y370000D03*
G54D12*
X553950Y370000D03*
X553950Y385000D03*
M02*
