G71*
G90*
G04 Quadcept GERBER*
%MOMM*%
%FSLAX44Y44*%
%ADD10C,0*%
%ADD11C,0.2*%
%ADD12R,0.5X0.5*%
%ADD13R,2X2*%
%ADD14R,2.5X2.5*%
%ADD15R,4X4*%
%ADD16R,0.2X1*%
%ADD17R,0.25X0.75*%
%ADD18R,0.3X0.8*%
%ADD19R,0.3X1.25*%
%ADD20R,0.4X2.15*%
%ADD21R,0.45X0.7*%
%ADD22R,0.5X1.3*%
%ADD23R,0.55X0.4*%
%ADD24R,0.559X0.648*%
%ADD25R,0.6X1*%
%ADD26R,0.6X1*%
%ADD27R,0.6X1.2*%
%ADD28R,0.75X0.25*%
%ADD29R,0.8X0.3*%
%ADD30R,0.8X0.9*%
%ADD31R,0.85X0.75*%
%ADD32R,0.85X0.75*%
%ADD33R,0.9X0.8*%
%ADD34R,0.9X1.4*%
%ADD35R,0.9X1.5*%
%ADD36R,0.91X1.22*%
%ADD37R,1X0.2*%
%ADD38R,1X0.4*%
%ADD39R,1X0.4*%
%ADD40R,1X1.25*%
%ADD41R,1.22X0.91*%
%ADD42R,1.25X1*%
%ADD43R,1.4X0.9*%
%ADD44R,1.45X0.65*%
%ADD45R,1.45X0.65*%
%ADD46R,1.5X0.9*%
%ADD47R,1.6X2.5*%
%ADD48R,1.6X4*%
%ADD49R,1.6X4*%
%ADD50R,1.7X1.2*%
%ADD51R,2X2.5*%
%ADD52R,2.6X1.4*%
G54D10*
G75*
G36*
G01X-143400Y-50600D02*
G01X-145900Y-48100D01*
G01X-148400Y-50600D01*
G01X-148400Y-55100D01*
G01X-143400Y-55100D01*
G01X-143400Y-50600D01*
G37*
G36*
G01X-143400Y-40600D02*
G01X-148400Y-40600D01*
G01X-148400Y-47100D01*
G01X-145900Y-44600D01*
G01X-143400Y-47100D01*
G01X-143400Y-40600D01*
G37*
G36*
G01X-43500Y-33500D02*
G01X-41000Y-36000D01*
G01X-38500Y-33500D01*
G01X-38500Y-29000D01*
G01X-43500Y-29000D01*
G01X-43500Y-33500D01*
G37*
G36*
G01X-43500Y-43500D02*
G01X-38500Y-43500D01*
G01X-38500Y-37000D01*
G01X-41000Y-39500D01*
G01X-43500Y-37000D01*
G01X-43500Y-43500D01*
G37*
G36*
G01X75900Y-183800D02*
G01X77400Y-185300D01*
G01X78900Y-185300D01*
G01X78900Y-177300D01*
G01X75900Y-177300D01*
G01X75900Y-183800D01*
G37*
G36*
G01X66900Y-189300D02*
G01X74900Y-189300D01*
G01X74900Y-188300D01*
G01X72900Y-186300D01*
G01X66900Y-186300D01*
G01X66900Y-189300D01*
G37*
G36*
G01X114900Y-222300D02*
G01X116900Y-224300D01*
G01X122900Y-224300D01*
G01X122900Y-221300D01*
G01X114900Y-221300D01*
G01X114900Y-222300D01*
G37*
G36*
G01X110900Y-185300D02*
G01X111900Y-185300D01*
G01X113900Y-183300D01*
G01X113900Y-177300D01*
G01X110900Y-177300D01*
G01X110900Y-185300D01*
G37*
G36*
G01X66900Y-224300D02*
G01X72900Y-224300D01*
G01X74900Y-222300D01*
G01X74900Y-221300D01*
G01X66900Y-221300D01*
G01X66900Y-224300D01*
G37*
G36*
G01X114900Y-189300D02*
G01X122900Y-189300D01*
G01X122900Y-186300D01*
G01X116900Y-186300D01*
G01X114900Y-188300D01*
G01X114900Y-189300D01*
G37*
G36*
G01X75900Y-233300D02*
G01X78900Y-233300D01*
G01X78900Y-225300D01*
G01X77900Y-225300D01*
G01X75900Y-227300D01*
G01X75900Y-233300D01*
G37*
G36*
G01X110900Y-233300D02*
G01X113900Y-233300D01*
G01X113900Y-227300D01*
G01X111900Y-225300D01*
G01X110900Y-225300D01*
G01X110900Y-233300D01*
G37*
G36*
G01X-180900Y-40200D02*
G01X-191900Y-40200D01*
G01X-191900Y-47200D01*
G01X-187900Y-51200D01*
G01X-180900Y-51200D01*
G01X-180900Y-40200D01*
G37*
G54D11*
G01X-280000Y-390000D02*
G01X-279659Y-392588D01*
G01X-279659Y-392588D02*
G01X-278660Y-395000D01*
G01X-278660Y-395000D02*
G01X-277071Y-397071D01*
G01X-277071Y-397071D02*
G01X-275000Y-398660D01*
G01X-275000Y-398660D02*
G01X-272588Y-399659D01*
G01X-272588Y-399659D02*
G01X-270000Y-400000D01*
G01X-270000Y-400000D02*
G01X-270000Y-400000D01*
G01X-270000Y-400000D02*
G01X595000Y-400000D01*
G01X595000Y-400000D02*
G01X597588Y-399659D01*
G01X597588Y-399659D02*
G01X600000Y-398660D01*
G01X600000Y-398660D02*
G01X602071Y-397071D01*
G01X602071Y-397071D02*
G01X603660Y-395000D01*
G01X603660Y-395000D02*
G01X604659Y-392588D01*
G01X604659Y-392588D02*
G01X605000Y-390000D01*
G01X605000Y-390000D02*
G01X605000Y-390000D01*
G01X605000Y-390000D02*
G01X605000Y390000D01*
G01X605000Y390000D02*
G01X604659Y392588D01*
G01X604659Y392588D02*
G01X603660Y395000D01*
G01X603660Y395000D02*
G01X602071Y397071D01*
G01X602071Y397071D02*
G01X600000Y398660D01*
G01X600000Y398660D02*
G01X597588Y399659D01*
G01X597588Y399659D02*
G01X595000Y400000D01*
G01X595000Y400000D02*
G01X595000Y400000D01*
G01X595000Y400000D02*
G01X-270000Y400000D01*
G01X-270000Y400000D02*
G01X-272588Y399659D01*
G01X-272588Y399659D02*
G01X-275000Y398660D01*
G01X-275000Y398660D02*
G01X-277071Y397071D01*
G01X-277071Y397071D02*
G01X-278660Y395000D01*
G01X-278660Y395000D02*
G01X-279659Y392588D01*
G01X-279659Y392588D02*
G01X-280000Y390000D01*
G01X-280000Y390000D02*
G01X-280000Y390000D01*
G01X-280000Y390000D02*
G01X-280000Y-390000D01*
G01X585000Y-120600D02*
G01X605000Y-120600D01*
G01X200000Y-399850D02*
G01X200000Y-379850D01*
G01X200000Y-379850D02*
G01X230000Y-379850D01*
G01X230000Y-379850D02*
G01X230000Y-399850D01*
G01X605000Y-80000D02*
G01X585000Y-80000D01*
G01X585000Y89700D02*
G01X605000Y89700D01*
G01X585000Y49700D02*
G01X585000Y89700D01*
G01X605000Y49700D02*
G01X585000Y49700D01*
G01X230000Y400000D02*
G01X230000Y385200D01*
G01X230000Y385200D02*
G01X200000Y385200D01*
G01X200000Y385200D02*
G01X200000Y400000D01*
G01X585000Y-120300D02*
G01X585000Y-80300D01*
G54D12*
X-169600Y-6000D03*
X-180600Y-6000D03*
X-105800Y-62300D03*
X-116800Y-62300D03*
G54D13*
X-147000Y-201200D03*
G54D14*
X94900Y-205300D03*
G54D15*
X-143700Y238000D03*
G54D16*
X-190400Y-62200D03*
X-186400Y-62200D03*
X-178400Y-29200D03*
X-190400Y-29200D03*
X-194400Y-62200D03*
X-182400Y-62200D03*
X-178400Y-62200D03*
X-182400Y-29200D03*
X-186400Y-29200D03*
X-194400Y-29200D03*
G54D17*
X200000Y-263250D03*
X195000Y-263250D03*
X190000Y-263250D03*
X190000Y-292750D03*
X195000Y-292750D03*
X200000Y-292750D03*
G54D18*
X102400Y-181300D03*
X92400Y-181300D03*
X87400Y-181300D03*
X82400Y-181300D03*
X107400Y-229300D03*
X107400Y-181300D03*
X82400Y-229300D03*
X87400Y-229300D03*
X97400Y-229300D03*
X102400Y-229300D03*
X97400Y-181300D03*
X92400Y-229300D03*
G54D19*
X146700Y204250D03*
X121700Y204250D03*
X116700Y204250D03*
X141700Y204250D03*
X136700Y204250D03*
X131700Y204250D03*
X126700Y204250D03*
X106700Y204250D03*
X101700Y204250D03*
X96700Y204250D03*
X91700Y204250D03*
X86700Y204250D03*
X81700Y204250D03*
X76700Y204250D03*
X71700Y204250D03*
X61700Y204250D03*
X56700Y204250D03*
X51700Y204250D03*
X46700Y204250D03*
X41700Y204250D03*
X36700Y204250D03*
X31700Y204250D03*
X66700Y204250D03*
X111700Y204250D03*
G54D20*
X-143500Y-353400D03*
X-163000Y-353400D03*
X-156500Y-353400D03*
X-150000Y-353400D03*
X-137000Y-353400D03*
G54D21*
X-166050Y-232200D03*
X-153350Y-232200D03*
X-127950Y-232200D03*
X-127950Y-170200D03*
X-140650Y-170200D03*
X-153350Y-170200D03*
X-166050Y-170200D03*
X-140650Y-232200D03*
G54D22*
X311400Y328600D03*
X281400Y328600D03*
X266400Y328600D03*
G54D23*
X325150Y360600D03*
X252650Y337600D03*
X252650Y360600D03*
X325150Y337600D03*
G54D24*
X289400Y266000D03*
X295620Y283900D03*
X283180Y283900D03*
G54D25*
X228700Y-124500D03*
X190700Y-124500D03*
G54D26*
X238200Y-100500D03*
X219200Y-100500D03*
X200200Y-100500D03*
X181200Y-100500D03*
G54D27*
X-148500Y-286500D03*
X-167500Y-286500D03*
X-167500Y-309500D03*
X-158000Y-309500D03*
X-148500Y-309500D03*
X-158000Y-286500D03*
G54D28*
X180250Y-268000D03*
X209750Y-278000D03*
X209750Y-283000D03*
X209750Y-288000D03*
X209750Y-273000D03*
X180250Y-278000D03*
X209750Y-268000D03*
X180250Y-273000D03*
X180250Y-283000D03*
X180250Y-288000D03*
G54D29*
X70900Y-192800D03*
X70900Y-197800D03*
X70900Y-202800D03*
X70900Y-207800D03*
X118900Y-212800D03*
X118900Y-207800D03*
X118900Y-202800D03*
X70900Y-212800D03*
X70900Y-217800D03*
X118900Y-197800D03*
X118900Y-192800D03*
X118900Y-217800D03*
G54D30*
X-221400Y62700D03*
X-221400Y47700D03*
X290000Y-117500D03*
X290000Y-102500D03*
X29000Y-218500D03*
X29000Y-233500D03*
X-165000Y-92500D03*
X-165000Y-107500D03*
X-145000Y-92500D03*
X-145000Y-107500D03*
X201000Y324500D03*
X201000Y339500D03*
X181000Y324500D03*
X181000Y339500D03*
X161000Y324500D03*
X161000Y339500D03*
X141000Y324500D03*
X141000Y339500D03*
X121000Y324500D03*
X121000Y339500D03*
X101000Y324500D03*
X101000Y339500D03*
X81000Y324500D03*
X81000Y339500D03*
X61000Y324500D03*
X61000Y339500D03*
X41000Y324500D03*
X41000Y339500D03*
X21000Y324500D03*
X21000Y339500D03*
X288200Y183100D03*
X288200Y168100D03*
X-205000Y-267500D03*
X-205000Y-252500D03*
X-185000Y-92500D03*
X-185000Y-107500D03*
X-205000Y-92500D03*
X-205000Y-107500D03*
X-136700Y-147000D03*
X-136700Y-132000D03*
X-210000Y-182500D03*
X-210000Y-197500D03*
X-245000Y-252500D03*
X-245000Y-237500D03*
X126800Y-116100D03*
X126800Y-131100D03*
X102300Y-115100D03*
X102300Y-130100D03*
X-97100Y-83600D03*
X-97100Y-98600D03*
X290000Y-142500D03*
X290000Y-157500D03*
X-78600Y118500D03*
X-78600Y103500D03*
X245000Y-222500D03*
X245000Y-207500D03*
X220000Y-222500D03*
X220000Y-207500D03*
X83000Y275500D03*
X83000Y260500D03*
X103000Y275500D03*
X103000Y260500D03*
X-210000Y-157500D03*
X-210000Y-142500D03*
X549400Y232600D03*
X549400Y217600D03*
X-225000Y-252500D03*
X-225000Y-267500D03*
X100000Y-317500D03*
X100000Y-302500D03*
X70000Y-317500D03*
X70000Y-302500D03*
X70000Y-362500D03*
X70000Y-347500D03*
X100000Y-362500D03*
X100000Y-347500D03*
X-60000Y-347500D03*
X-60000Y-362500D03*
X-80000Y-347500D03*
X-80000Y-362500D03*
X-92000Y-209500D03*
X-92000Y-194500D03*
X516000Y-28500D03*
X516000Y-43500D03*
G54D31*
X584050Y369900D03*
X584050Y384900D03*
G54D32*
X553550Y384900D03*
X553550Y369900D03*
G54D33*
X261000Y-246500D03*
X276000Y-246500D03*
X216600Y-316300D03*
X201600Y-316300D03*
X64300Y-147900D03*
X49300Y-147900D03*
X317100Y221700D03*
X332100Y221700D03*
X175800Y-316800D03*
X160800Y-316800D03*
X184100Y-142500D03*
X199100Y-142500D03*
X202300Y-79100D03*
X217300Y-79100D03*
X215500Y-54900D03*
X200500Y-54900D03*
X236300Y-142500D03*
X221300Y-142500D03*
X-185400Y11800D03*
X-170400Y11800D03*
X-206400Y11200D03*
X-221400Y11200D03*
X-75600Y-65300D03*
X-60600Y-65300D03*
X249700Y306600D03*
X234700Y306600D03*
X315200Y304600D03*
X330200Y304600D03*
X326900Y267700D03*
X341900Y267700D03*
X537500Y175000D03*
X522500Y175000D03*
X492500Y340000D03*
X477500Y340000D03*
X492500Y360000D03*
X477500Y360000D03*
X477500Y320000D03*
X492500Y320000D03*
X58000Y-265000D03*
X43000Y-265000D03*
X21000Y-265000D03*
X6000Y-265000D03*
X567500Y175000D03*
X582500Y175000D03*
X567500Y140000D03*
X582500Y140000D03*
X522500Y140000D03*
X537500Y140000D03*
X502500Y117000D03*
X487500Y117000D03*
G54D34*
X596500Y243000D03*
X583500Y207000D03*
X583500Y243000D03*
X596500Y207000D03*
X596500Y-257000D03*
X583500Y-257000D03*
X583500Y-293000D03*
X596500Y-293000D03*
G54D35*
X-168300Y143000D03*
X-155600Y143000D03*
X-142900Y143000D03*
X-130200Y143000D03*
X-117500Y143000D03*
X-104800Y143000D03*
X-92100Y143000D03*
X-181000Y143000D03*
X-79400Y143000D03*
X-193700Y143000D03*
G54D36*
X262450Y230600D03*
X229750Y230600D03*
G54D37*
X-202900Y-45700D03*
X-202900Y-49700D03*
X-202900Y-53700D03*
X-169900Y-53700D03*
X-169900Y-49700D03*
X-169900Y-45700D03*
X-169900Y-41700D03*
X-169900Y-37700D03*
X-202900Y-37700D03*
X-202900Y-41700D03*
G54D38*
X287150Y-267300D03*
X287150Y-287300D03*
X287150Y-277300D03*
G54D39*
X253650Y-267300D03*
X253650Y-277300D03*
X253650Y-287300D03*
G54D40*
X-182300Y37600D03*
X-202300Y37600D03*
X8100Y-65700D03*
X28100Y-65700D03*
X-93300Y-43300D03*
X-113300Y-43300D03*
G54D41*
X348500Y162750D03*
X348500Y195450D03*
X378600Y194550D03*
X378600Y161850D03*
G54D42*
X-160500Y-130200D03*
X-160500Y-150200D03*
X-147600Y1500D03*
X-147600Y-18500D03*
X288300Y209700D03*
X288300Y229700D03*
G54D43*
X181500Y-391500D03*
X181500Y-378500D03*
X145500Y-378500D03*
X145500Y-391500D03*
G54D44*
X447250Y235750D03*
X447250Y214250D03*
X447250Y85750D03*
X447250Y64250D03*
X447250Y-64250D03*
X447250Y-85750D03*
X497250Y-224250D03*
X497250Y-245750D03*
X497250Y-304250D03*
X497250Y-325750D03*
G54D45*
X492750Y235750D03*
X492750Y214250D03*
X492750Y85750D03*
X492750Y64250D03*
X492750Y-85750D03*
X492750Y-64250D03*
X542750Y-224250D03*
X542750Y-245750D03*
X542750Y-304250D03*
X542750Y-325750D03*
G54D46*
X-228700Y286900D03*
X-228700Y274200D03*
X-44700Y236100D03*
X-44700Y248800D03*
X-228700Y312300D03*
X-228700Y299600D03*
X-228700Y261500D03*
X-228700Y248800D03*
X-228700Y236100D03*
X-228700Y223400D03*
X-228700Y210700D03*
X-228700Y198000D03*
X-228700Y185300D03*
X-228700Y172600D03*
X-228700Y159900D03*
X-44700Y159900D03*
X-44700Y172600D03*
X-44700Y185300D03*
X-44700Y198000D03*
X-44700Y210700D03*
X-44700Y223400D03*
X-44700Y261500D03*
X-44700Y299600D03*
X-44700Y312300D03*
X-44700Y286900D03*
X-44700Y274200D03*
X-228700Y325000D03*
X-44700Y325000D03*
G54D47*
X270400Y-277300D03*
G54D48*
X332000Y-270000D03*
G54D49*
X448000Y-270000D03*
G54D50*
X-247400Y69600D03*
X-247400Y42600D03*
X-143400Y33100D03*
X-143400Y60100D03*
X-28700Y-65900D03*
X-28700Y-92900D03*
G54D51*
X163700Y230000D03*
X14700Y230000D03*
G54D52*
X-244000Y-315000D03*
X-244000Y-287000D03*
M02*
