M48
METRIC,TZ,0000.0000
VER,1
FMAT,2
T01C0.3000
T02C0.5000
T03C0.5000
T04C0.6500
T05C0.7000
T06C0.7000
T07C0.8000
T08C1.0000
T09C3.0000
DETECT, ON
ATC, ON
%
T01
X-158000Y-323000
X-206000Y-282000
X170000Y267000
X59000Y306000
X50000Y-217800
X-170000Y-259000
X-137000Y-290000
X54000Y-208000
X220000Y-236000
X131000Y-190000
X181000Y-111000
X130000Y-176000
X219000Y-111000
X112400Y-147900
X82000Y-148000
X39000Y-189000
X172000Y-299000
X241000Y-270000
X115000Y-362500
X70000Y-42000
X275000Y195000
X39000Y153000
X17000Y199000
X572000Y384000
X534000Y385000
X558000Y355000
X186000Y-14000
X-98000Y-161000
X-69000Y-315000
X109000Y-1000
X252000Y-142000
X465000Y-64250
X91000Y8000
X174000Y7000
X400000Y-204000
X-25000Y299000
X-24000Y257000
X229000Y-252000
X450000Y320000
X-205000Y210000
X450000Y333000
X-213000Y198000
X-212000Y185300
X464000Y358000
X-243000Y234000
X395000Y300000
X-243000Y207000
X167000Y-278000
X-44700Y129000
X184000Y-220000
X588000Y344000
X200000Y10000
X515000Y-228000
X212000Y10000
X504000Y-315000
X80000Y229000
X-30000Y274000
X-29000Y287000
X69000Y236000
X116000Y275500
X-11000Y100000
X219000Y-262000
X156000Y-284000
X61000Y-118000
X256000Y-311000
X122000Y-249000
X2000Y-249000
T02
X-184000Y-171200
X-158000Y-76000
X-156000Y-35000
T03
X-242500Y-135850
X-242500Y-123350
T04
X-185750Y-353250
X-185750Y-350500
X-185750Y-347750
X-185750Y-387750
X-185750Y-385000
X-185750Y-382250
X-114250Y-353250
X-114250Y-350500
X-114250Y-347750
X-114250Y-387750
X-114250Y-385000
X-114250Y-382250
T05
X163500Y-376000
X163500Y-394000
X581000Y225000
X599000Y225000
X581000Y-275000
X599000Y-275000
T06
X303900Y349100
X273900Y349100
T07
X-170000Y-362000
X-130000Y-362000
T08
X91800Y-54900
X117200Y-54900
X142600Y-54900
X168000Y-54900
X305200Y-353400
X279800Y-353400
X254400Y-353400
X229000Y-353400
X-250100Y-178800
X-250100Y-204200
T09
X360000Y360000
X360000Y0000
X360000Y-360000
X575000Y-360000
X575000Y0000
X0000Y-360000
X-250000Y-360000
X0000Y0000
M30
