G71*
G90*
G04 Quadcept GERBER*
%MOMM*%
%FSLAX44Y44*%
%ADD10C,0.2*%
%ADD11C,0.7*%
%ADD12C,0.85*%
%ADD13C,1.1*%
%ADD14C,2.2*%
%ADD15C,5*%
%ADD16O,1.05X1.6*%
%ADD17R,1.1X1*%
%ADD18R,1.1X1*%
G54D10*
G01X-280000Y-390000D02*
G01X-279659Y-392588D01*
G01X-279659Y-392588D02*
G01X-278660Y-395000D01*
G01X-278660Y-395000D02*
G01X-277071Y-397071D01*
G01X-277071Y-397071D02*
G01X-275000Y-398660D01*
G01X-275000Y-398660D02*
G01X-272588Y-399659D01*
G01X-272588Y-399659D02*
G01X-270000Y-400000D01*
G01X-270000Y-400000D02*
G01X-270000Y-400000D01*
G01X-270000Y-400000D02*
G01X595000Y-400000D01*
G01X595000Y-400000D02*
G01X597588Y-399659D01*
G01X597588Y-399659D02*
G01X600000Y-398660D01*
G01X600000Y-398660D02*
G01X602071Y-397071D01*
G01X602071Y-397071D02*
G01X603660Y-395000D01*
G01X603660Y-395000D02*
G01X604659Y-392588D01*
G01X604659Y-392588D02*
G01X605000Y-390000D01*
G01X605000Y-390000D02*
G01X605000Y-390000D01*
G01X605000Y-390000D02*
G01X605000Y390000D01*
G01X605000Y390000D02*
G01X604659Y392588D01*
G01X604659Y392588D02*
G01X603660Y395000D01*
G01X603660Y395000D02*
G01X602071Y397071D01*
G01X602071Y397071D02*
G01X600000Y398660D01*
G01X600000Y398660D02*
G01X597588Y399659D01*
G01X597588Y399659D02*
G01X595000Y400000D01*
G01X595000Y400000D02*
G01X595000Y400000D01*
G01X595000Y400000D02*
G01X-270000Y400000D01*
G01X-270000Y400000D02*
G01X-272588Y399659D01*
G01X-272588Y399659D02*
G01X-275000Y398660D01*
G01X-275000Y398660D02*
G01X-277071Y397071D01*
G01X-277071Y397071D02*
G01X-278660Y395000D01*
G01X-278660Y395000D02*
G01X-279659Y392588D01*
G01X-279659Y392588D02*
G01X-280000Y390000D01*
G01X-280000Y390000D02*
G01X-280000Y390000D01*
G01X-280000Y390000D02*
G01X-280000Y-390000D01*
G01X585000Y-120600D02*
G01X605000Y-120600D01*
G01X200000Y-399850D02*
G01X200000Y-379850D01*
G01X200000Y-379850D02*
G01X230000Y-379850D01*
G01X230000Y-379850D02*
G01X230000Y-399850D01*
G01X605000Y-80000D02*
G01X585000Y-80000D01*
G01X585000Y89700D02*
G01X605000Y89700D01*
G01X585000Y49700D02*
G01X585000Y89700D01*
G01X605000Y49700D02*
G01X585000Y49700D01*
G01X230000Y400000D02*
G01X230000Y385200D01*
G01X230000Y385200D02*
G01X200000Y385200D01*
G01X200000Y385200D02*
G01X200000Y400000D01*
G01X585000Y-120300D02*
G01X585000Y-80300D01*
G54D11*
X-30000Y274000D03*
X-29000Y287000D03*
G54D12*
X-242500Y-135850D03*
X-242500Y-123350D03*
G54D13*
X-184000Y-171200D03*
X-158000Y-76000D03*
X-156000Y-35000D03*
G54D14*
X91800Y-54900D03*
X117200Y-54900D03*
X142600Y-54900D03*
X168000Y-54900D03*
X305200Y-353400D03*
X279800Y-353400D03*
X254400Y-353400D03*
X229000Y-353400D03*
X-250100Y-178800D03*
X-250100Y-204200D03*
G54D15*
X360000Y360000D03*
X360000Y0000D03*
X360000Y-360000D03*
X575000Y-360000D03*
X575000Y0000D03*
X0000Y-360000D03*
X-250000Y-360000D03*
X0000Y0000D03*
G54D16*
X-185750Y-350500D03*
X-185750Y-385000D03*
X-114250Y-350500D03*
X-114250Y-385000D03*
G54D17*
X584450Y385000D03*
X584450Y370000D03*
G54D18*
X553950Y370000D03*
X553950Y385000D03*
M02*
